<svg width="32" height="32" viewBox="0 0 32 32" fill="none" xmlns="http://www.w3.org/2000/svg">
  <circle cx="16" cy="16" r="14" fill="#1B2A4A"/>
  <svg x="7" y="3.5" width="18" height="25" viewBox="-2 6 20 25">
    <path fill-rule="evenodd" clip-rule="evenodd" d="M17.1215 7.32632C17.2595 7.29573 17.305 7.33431 17.2977 7.468C17.2949 7.51904 17.2957 7.57028 17.2965 7.62154C17.2969 7.64567 17.2972 7.66981 17.2972 7.69393C17.2972 9.1076 17.2969 10.5213 17.2965 11.9349C17.2957 15.4932 17.2948 19.0516 17.2995 22.6099C17.302 24.5145 16.8547 26.2658 15.5952 27.7338C14.3948 29.1328 12.851 29.9647 11.0647 30.3087C8.57162 30.7886 6.15444 30.5785 3.89577 29.3132C2.75693 28.6752 1.89438 27.754 1.26516 26.6059C1.15905 26.4124 1.12477 26.3257 1.4066 26.2721C2.30023 26.1017 3.18898 25.9048 4.07749 25.7079C4.14882 25.6921 4.22016 25.6763 4.2915 25.6605C4.42515 25.6309 4.51525 25.6181 4.61104 25.7456C5.29593 26.6581 6.24963 27.106 7.33774 27.2938C8.6936 27.5276 10.0457 27.5478 11.3514 27.0371C13.0192 26.3848 13.8761 25.1055 14.0278 23.3424C14.0653 22.9089 14.0553 22.4712 14.0454 22.0402C14.041 21.8455 14.0365 21.6521 14.0365 21.4611C13.9612 21.5308 13.8859 21.6006 13.8107 21.6704C13.6335 21.8346 13.4564 21.9987 13.279 22.1627C10.8102 24.4444 6.92105 24.5178 4.221 22.8803C-0.544503 19.9897 -1.42606 13.5639 2.35177 9.44516C4.96741 6.59367 9.51125 6.00315 12.587 8.11279C13.1135 8.47391 13.569 8.91296 14.0545 9.46777C14.0545 9.32374 14.0549 9.18841 14.0553 9.05922C14.0563 8.752 14.0571 8.47946 14.0519 8.20699C14.0493 8.06305 14.0774 7.98121 14.2387 7.9476C15.2011 7.74744 16.1617 7.53884 17.1215 7.32632ZM3.27718 15.4749C3.35276 18.5712 5.71486 20.9014 8.7144 20.8389C11.8293 20.7739 14.116 18.4051 14.05 15.3115C13.9843 12.2401 11.6229 9.95686 8.57057 10.0138C5.539 10.0705 3.20414 12.4792 3.27718 15.4749Z" fill="#36B37E"/>
  </svg>
</svg>
